<svg width="22" height="20" viewBox="0 0 22 20" fill="none" xmlns="http://www.w3.org/2000/svg">
<g clip-path="url(#clip0)">
<path d="M18.1316 10.7877C17.7935 10.7877 17.5195 11.0519 17.5195 11.3778V17.4415H14.1428V11.3778C14.1428 11.0519 13.8688 10.7877 13.5307 10.7877H8.92923C8.59109 10.7877 8.31711 11.0519 8.31711 11.3778V17.4415H4.94008V11.3778C4.94008 11.0519 4.66609 10.7877 4.32796 10.7877C3.98982 10.7877 3.71584 11.0519 3.71584 11.3778V18.0317C3.71584 18.3576 3.98982 18.6218 4.32796 18.6218H8.92923H13.5307H18.1316C18.4697 18.6218 18.7437 18.3576 18.7437 18.0317V11.3778C18.7437 11.0519 18.4697 10.7877 18.1316 10.7877ZM9.54135 17.4415V11.968H12.9185V17.4415H9.54135Z" fill="black"/>
<path d="M21.4232 10.9605L11.6622 1.55102C11.4233 1.32056 11.0357 1.32064 10.7965 1.55102L1.03647 10.9605C0.797414 11.191 0.797414 11.5646 1.03647 11.795C1.2756 12.0255 1.66312 12.0255 1.90217 11.795L11.2294 2.80288L20.5576 11.7951C20.6771 11.9103 20.8338 11.9679 20.9904 11.9679C21.147 11.9679 21.3037 11.9103 21.4233 11.795C21.6622 11.5646 21.6622 11.191 21.4232 10.9605Z" fill="black"/>
</g>
<defs>
<clipPath id="clip0">
<rect width="20.7453" height="20" fill="white" transform="translate(0.857147)"/>
</clipPath>
</defs>
</svg>
