<svg width="21" height="20" viewBox="0 0 21 20" fill="none" xmlns="http://www.w3.org/2000/svg">
<g clip-path="url(#clip0)">
<path d="M20.0964 9.37533H11.8849C11.5271 9.37533 11.2367 9.09534 11.2367 8.75035C11.2367 8.40536 11.5271 8.12537 11.8849 8.12537H20.0964C20.4543 8.12537 20.7447 8.40536 20.7447 8.75035C20.7447 9.09534 20.4543 9.37533 20.0964 9.37533Z" fill="black"/>
<path d="M16.8551 12.5002C16.689 12.5002 16.5232 12.4394 16.3969 12.317C16.1436 12.0727 16.1436 11.6769 16.3969 11.4328L19.1802 8.74959L16.3969 6.06626C16.1436 5.82213 16.1436 5.42633 16.3969 5.18219C16.6503 4.93791 17.0608 4.93791 17.3141 5.18219L20.5554 8.3071C20.8086 8.55123 20.8086 8.94704 20.5554 9.19117L17.3141 12.3161C17.187 12.4394 17.0211 12.5002 16.8551 12.5002Z" fill="black"/>
<path d="M6.91495 20C6.72993 20 6.55441 19.975 6.37905 19.9225L1.17721 18.2517C0.469427 18.0134 0 17.3775 0 16.6668V1.66728C0 0.748115 0.775362 0.000610352 1.72878 0.000610352C1.91364 0.000610352 2.08916 0.025634 2.26468 0.0781226L7.46636 1.74891C8.1743 1.98724 8.64357 2.62306 8.64357 3.33379V18.3333C8.64357 19.2525 7.86837 20 6.91495 20ZM1.72878 1.25057C1.49106 1.25057 1.29654 1.4381 1.29654 1.66728V16.6668C1.29654 16.8443 1.42015 17.0092 1.59646 17.0684L6.77393 18.7317C6.81113 18.7433 6.85956 18.75 6.91495 18.75C7.15267 18.75 7.34703 18.5625 7.34703 18.3333V3.33379C7.34703 3.15633 7.22342 2.99139 7.04711 2.93219L1.86964 1.26888C1.83244 1.25728 1.78401 1.25057 1.72878 1.25057Z" fill="black"/>
<path d="M13.1815 6.66712C12.8236 6.66712 12.5332 6.38713 12.5332 6.04214V2.29226C12.5332 1.71809 12.0484 1.25057 11.4528 1.25057H1.72876C1.37091 1.25057 1.08049 0.970581 1.08049 0.625591C1.08049 0.2806 1.37091 0.000610352 1.72876 0.000610352H11.4528C12.7641 0.000610352 13.8297 1.02811 13.8297 2.29226V6.04214C13.8297 6.38713 13.5393 6.66712 13.1815 6.66712Z" fill="black"/>
<path d="M11.4529 17.5001H7.99532C7.63747 17.5001 7.34705 17.2201 7.34705 16.8751C7.34705 16.5301 7.63747 16.2501 7.99532 16.2501H11.4529C12.0484 16.2501 12.5332 15.7826 12.5332 15.2084V11.4585C12.5332 11.1135 12.8236 10.8336 13.1815 10.8336C13.5393 10.8336 13.8298 11.1135 13.8298 11.4585V15.2084C13.8298 16.4726 12.7641 17.5001 11.4529 17.5001Z" fill="black"/>
</g>
<defs>
<clipPath id="clip0">
<rect width="20.7453" height="20" fill="white"/>
</clipPath>
</defs>
</svg>
