<svg width="22" height="20" viewBox="0 0 22 20" fill="none" xmlns="http://www.w3.org/2000/svg">
<g clip-path="url(#clip0)">
<path d="M21.0099 7.73474L18.5036 7.43588C18.429 7.23887 18.3457 7.0449 18.2542 6.85493L19.8072 4.93545C20.0169 4.67618 19.9933 4.30682 19.7521 4.07439L17.3758 1.78477C17.1346 1.55242 16.7516 1.52967 16.4829 1.73189L14.4925 3.22835C14.2955 3.14022 14.0943 3.0599 13.8897 2.98792L13.5798 0.572319C13.5379 0.246024 13.2505 0.000999451 12.9095 0.000999451H9.54961C9.20864 0.000999451 8.92107 0.246024 8.87928 0.572319L8.56937 2.98801C8.36484 3.06008 8.16364 3.14031 7.96695 3.22835L5.97621 1.73137C5.70746 1.52915 5.32433 1.5519 5.08315 1.78433L2.7073 4.07447C2.46611 4.30691 2.44252 4.67627 2.65227 4.93553L4.20504 6.85475C4.11353 7.04447 4.03023 7.23852 3.95539 7.43597L1.44967 7.73474C1.1113 7.77511 0.857147 8.05226 0.857147 8.38108V11.6205C0.857147 11.9493 1.11139 12.2265 1.44985 12.2667L3.95539 12.5651C4.03014 12.7623 4.11335 12.9562 4.20477 13.146L2.65227 15.0653C2.44261 15.3244 2.4662 15.6937 2.70721 15.9261L5.08315 18.2172C5.32424 18.4497 5.70737 18.4723 5.9763 18.2702L7.96704 16.7731C8.16364 16.8611 8.36475 16.9413 8.56937 17.0134L8.87928 19.4297C8.92116 19.7559 9.20864 20.001 9.54961 20.001H12.9096C13.2505 20.001 13.5381 19.756 13.5799 19.4297L13.8898 17.0135C14.0943 16.9414 14.2956 16.8612 14.4925 16.7731L16.4834 18.2703C16.7523 18.4726 17.1353 18.4498 17.3766 18.2172L19.7523 15.9262C19.9934 15.6937 20.0169 15.3244 19.8072 15.0653L18.2545 13.1465C18.346 12.9566 18.4293 12.7625 18.5041 12.5652L21.0097 12.2668C21.3482 12.2265 21.6024 11.9493 21.6024 11.6206V8.38108C21.6025 8.05226 21.3483 7.77511 21.0099 7.73474ZM20.2516 11.0447L17.9157 11.3228C17.6501 11.3544 17.429 11.5342 17.3517 11.7811C17.2287 12.1745 17.065 12.5558 16.8649 12.9144C16.7381 13.1417 16.7625 13.4198 16.9273 13.6233L18.3748 15.4123L16.8435 16.889L14.9876 15.4934C14.7765 15.3347 14.4882 15.3111 14.2525 15.4332C13.8807 15.6258 13.4852 15.7836 13.0769 15.9023C12.8208 15.9767 12.6344 16.1899 12.6016 16.4458L12.3126 18.6984H10.1469L9.85799 16.4458C9.8252 16.1899 9.63878 15.9768 9.38282 15.9023C8.97357 15.7831 8.5782 15.6255 8.20759 15.4333C7.97181 15.3111 7.68343 15.3347 7.47232 15.4934L5.6165 16.889L4.08499 15.4122L5.53229 13.6231C5.69692 13.4196 5.72133 13.1417 5.5947 12.9144C5.39512 12.5562 5.23139 12.1749 5.10809 11.781C5.03082 11.5341 4.80972 11.3545 4.54421 11.3229L2.20808 11.0447V8.95665L4.54403 8.67811C4.80945 8.64642 5.03046 8.46678 5.10773 8.22001C5.23112 7.82582 5.39494 7.44465 5.59461 7.08693C5.7216 6.85953 5.69719 6.58133 5.53238 6.37773L4.08472 4.58849L5.61614 3.11243L7.47196 4.508C7.68316 4.66672 7.97145 4.69034 8.20723 4.56808C8.57838 4.37568 8.97375 4.21791 9.38237 4.09913C9.63842 4.02464 9.82484 3.81148 9.85763 3.5556L10.1465 1.30357H12.3123L12.6012 3.5556C12.6341 3.81156 12.8205 4.02481 13.0767 4.09922C13.4844 4.21765 13.8798 4.37541 14.2522 4.56826C14.4879 4.69034 14.7762 4.66681 14.9873 4.50809L16.843 3.11295L18.3746 4.58875L16.9271 6.37799C16.7625 6.58133 16.738 6.85909 16.8645 7.08632C17.0646 7.44587 17.2283 7.8273 17.3511 8.21993C17.4283 8.46686 17.6494 8.64659 17.9149 8.67829L20.2515 8.95683V11.0447H20.2516Z" fill="black"/>
<path d="M11.2295 5.94085C8.90821 5.94085 7.01978 7.76178 7.01978 10.0001C7.01978 12.238 8.90821 14.0587 11.2295 14.0587C13.551 14.0587 15.4397 12.238 15.4397 10.0001C15.4397 7.76178 13.551 5.94085 11.2295 5.94085ZM11.2295 12.7563C9.6532 12.7563 8.37071 11.5199 8.37071 10.0001C8.37071 8.48001 9.6532 7.24325 11.2295 7.24325C12.8061 7.24325 14.0888 8.48001 14.0888 10.0001C14.0888 11.5199 12.8061 12.7563 11.2295 12.7563Z" fill="black"/>
</g>
<defs>
<clipPath id="clip0">
<rect width="20.7453" height="20" fill="white" transform="translate(0.857147)"/>
</clipPath>
</defs>
</svg>
