<svg width="21" height="20" viewBox="0 0 21 20" fill="none" xmlns="http://www.w3.org/2000/svg">
<g clip-path="url(#clip0)">
<path d="M16.8474 8.93707C18.0918 8.15994 18.9161 6.81519 18.9161 5.289C18.9161 2.88956 16.8786 0.9375 14.3742 0.9375C12.6978 0.9375 11.2307 1.81229 10.4438 3.11035C9.65683 1.81229 8.18986 0.9375 6.51345 0.9375C4.00903 0.9375 1.97141 2.88956 1.97141 5.289C1.97141 6.81519 2.79576 8.15994 4.04008 8.93707C1.67518 9.87167 0.0062561 12.104 0.0062561 14.7032V16.8997C0.0062561 18.0881 1.01535 19.0547 2.25554 19.0547H18.632C19.8723 19.0547 20.8813 18.0881 20.8813 16.8999V14.7032C20.8813 12.104 19.2123 9.87167 16.8474 8.93707ZM14.3742 2.10938C16.2042 2.10938 17.693 3.53577 17.693 5.289C17.693 7.04239 16.2042 8.46878 14.3742 8.46878C12.5441 8.46878 11.0553 7.04239 11.0553 5.289C11.0553 3.53577 12.5441 2.10938 14.3742 2.10938ZM10.4415 9.73633C9.9975 9.41315 9.5092 9.14352 8.98681 8.93707C9.58421 8.564 10.0848 8.06 10.4438 7.46796C10.8026 8.05969 11.3028 8.56339 11.8997 8.93646C11.3823 9.14032 10.8921 9.40857 10.4415 9.73633ZM3.19455 5.289C3.19455 3.53577 4.68335 2.10938 6.51345 2.10938C8.34339 2.10938 9.83218 3.53577 9.83218 5.289C9.83218 7.04239 8.34339 8.46878 6.51345 8.46878C4.68335 8.46878 3.19455 7.04239 3.19455 5.289ZM10.1162 17.8828H2.25554C1.68967 17.8828 1.2294 17.4419 1.2294 16.8999V14.7032C1.2294 11.9116 3.59988 9.64066 6.51345 9.64066C9.42702 9.64066 11.7975 11.9118 11.7975 14.7032V16.8999C11.7975 17.4419 11.3371 17.8828 10.7714 17.8828H10.1162ZM19.6581 16.8999C19.6581 17.4419 19.1978 17.8828 18.632 17.8828H12.7719C12.9305 17.5879 13.0206 17.2539 13.0206 16.8999V14.7032C13.0206 13.1075 12.3912 11.6499 11.3584 10.5461C12.2391 9.95895 13.2888 9.64066 14.3742 9.64066C17.2878 9.64066 19.6581 11.9116 19.6581 14.7032V16.8999Z" fill="black"/>
</g>
<defs>
<clipPath id="clip0">
<rect width="20.875" height="20" fill="white" transform="translate(0.0062561)"/>
</clipPath>
</defs>
</svg>
