<?xml version="1.0" standalone="no"?>
<!DOCTYPE svg PUBLIC "-//W3C//DTD SVG 20010904//EN"
 "http://www.w3.org/TR/2001/REC-SVG-20010904/DTD/svg10.dtd">
<svg version="1.0" xmlns="http://www.w3.org/2000/svg"
 width="150.000000pt" height="58.000000pt" viewBox="0 0 150.000000 58.000000"
 preserveAspectRatio="xMidYMid meet">

<g transform="translate(0.000000,58.000000) scale(0.100000,-0.100000)"
fill="#000000" stroke="none">
<path d="M1120 515 c0 -28 -4 -35 -20 -35 -13 0 -20 -7 -20 -19 0 -10 9 -21
20 -24 17 -4 20 -14 20 -65 0 -69 15 -92 60 -92 43 0 58 9 53 31 -4 14 -11 18
-25 13 -31 -10 -48 14 -48 67 l0 49 35 0 c28 0 35 4 35 20 0 16 -7 20 -35 20
-33 0 -35 2 -35 35 0 28 -4 35 -20 35 -16 0 -20 -7 -20 -35z"/>
<path d="M166 461 c-29 -32 -17 -63 34 -89 25 -12 46 -27 48 -32 6 -17 -29
-24 -59 -13 -22 8 -31 8 -39 -2 -16 -19 25 -45 71 -45 45 0 72 27 67 67 -2 22
-12 32 -45 47 -43 19 -55 42 -29 52 8 3 23 1 34 -5 15 -8 23 -7 32 4 28 34
-84 50 -114 16z"/>
<path d="M340 475 c-1 -3 -1 -47 -1 -97 -1 -87 1 -93 20 -96 19 -3 21 1 21 62
0 69 14 96 50 96 28 0 40 -30 40 -100 0 -58 1 -61 22 -58 20 3 22 8 19 56 -3
59 17 102 47 102 32 0 42 -22 42 -92 0 -66 1 -68 25 -68 24 0 25 2 25 74 0 59
-4 78 -21 100 -24 30 -72 35 -107 10 -20 -14 -24 -14 -38 0 -20 21 -63 20 -86
-1 -17 -15 -18 -15 -18 0 0 15 -39 26 -40 12z"/>
<path d="M719 451 c-60 -61 -22 -171 60 -171 20 0 43 6 50 12 11 10 14 10 18
1 3 -7 13 -13 24 -13 17 0 19 8 19 100 0 92 -2 100 -19 100 -11 0 -21 -5 -23
-11 -3 -9 -9 -9 -25 0 -37 19 -73 13 -104 -18z m111 -31 c11 -11 20 -28 20
-38 0 -29 -29 -62 -56 -62 -29 0 -64 32 -64 60 0 11 9 29 20 40 11 11 29 20
40 20 11 0 29 -9 40 -20z"/>
<path d="M940 380 l0 -100 25 0 c24 0 25 2 25 63 0 67 17 97 53 97 10 0 17 8
17 20 0 23 -38 28 -58 8 -9 -9 -12 -9 -12 0 0 7 -11 12 -25 12 l-25 0 0 -100z"/>
<path d="M40 175 l0 -135 25 0 c24 0 25 3 25 56 0 66 13 94 43 94 37 0 47 -19
47 -87 0 -61 1 -63 25 -63 24 0 25 2 25 73 0 81 -14 111 -55 121 -16 4 -38 1
-56 -8 l-29 -14 0 49 c0 46 -2 49 -25 49 l-25 0 0 -135z"/>
<path d="M324 231 c-12 -5 -31 -22 -43 -37 -48 -61 -7 -150 76 -161 39 -5 46
-2 78 30 27 27 35 43 35 71 0 69 -83 124 -146 97z m80 -57 c18 -18 20 -47 6
-75 -15 -26 -75 -26 -90 0 -23 45 -1 91 45 91 13 0 31 -7 39 -16z"/>
<path d="M572 224 c-12 -8 -22 -10 -22 -5 0 6 -11 11 -25 11 -25 0 -25 0 -25
-95 0 -95 0 -95 25 -95 24 0 25 3 25 59 0 63 15 91 50 91 19 0 34 25 24 41 -8
13 -27 11 -52 -7z"/>
<path d="M1104 231 c-32 -14 -64 -60 -64 -93 0 -69 56 -117 123 -104 86 16
115 134 44 180 -30 20 -77 28 -103 17z m78 -58 c36 -33 10 -93 -42 -93 -35 0
-50 17 -50 57 0 49 54 71 92 36z"/>
<path d="M1342 224 c-12 -8 -22 -10 -22 -5 0 6 -11 11 -25 11 -25 0 -25 0 -25
-95 0 -95 0 -95 25 -95 24 0 25 2 25 63 0 67 10 87 45 87 35 0 45 -20 45 -87
0 -61 1 -63 25 -63 24 0 25 2 25 65 0 75 -13 108 -47 124 -32 15 -44 14 -71
-5z"/>
<path d="M655 135 c0 -92 1 -95 23 -95 21 0 22 3 22 95 0 92 -1 95 -22 95 -22
0 -23 -3 -23 -95z"/>
<path d="M744 213 c2 -14 14 -19 49 -21 l47 -3 -50 -60 c-70 -84 -68 -89 36
-89 76 0 85 2 82 17 -3 14 -14 18 -51 18 -26 0 -47 1 -47 3 0 2 23 31 50 65
28 34 50 67 50 74 0 10 -23 13 -84 13 -75 0 -84 -2 -82 -17z"/>
<path d="M994 199 c-28 -31 -26 -102 4 -131 l22 -22 0 87 c0 48 -2 87 -3 87
-2 0 -12 -9 -23 -21z"/>
<path d="M940 181 c-11 -22 -13 -55 -4 -88 11 -41 19 -24 19 42 0 36 -1 65 -2
65 -1 0 -7 -9 -13 -19z"/>
</g>
</svg>
