<svg id="Logo_Joint" data-name="Logo Joint" xmlns="http://www.w3.org/2000/svg" viewBox="0 0 456.28 456.28"><defs><style>.cls-1{fill:#fc0;}</style></defs><title>carmoney-logo</title><path class="cls-1" d="M449.58 211.88L244.39 6.7a23.05 23.05 0 0 0-32.51 0L6.7 211.88a23.05 23.05 0 0 0 0 32.51l205.19 205.18a23.05 23.05 0 0 0 32.51 0l205.18-205.18a23.05 23.05 0 0 0 0-32.51zm-66.5 50.85v24.25l-4.81.8a60.76 60.76 0 0 1-20.13 0l-4.81-.8v-24.25l-3.66-6.36-9.62 9.71a46.89 46.89 0 0 1 2.84 13.45l.27 4.13-3.83 1.57a64.28 64.28 0 0 1-22.25 4l-88.95 89.74-105.45-106.38c-1.18.1-2.36.17-3.54.17a41.08 41.08 0 0 1-8.43-.88l-3.13-.66-2.39-.55-.44 16.33-4.67.79a58 58 0 0 1-19.42 0l-5-.84 3.64-89.57 4.68-.72a69.13 69.13 0 0 1 21.28 0l3.3.51.65.11 37.66-38a65.45 65.45 0 0 1-.86-10.75c0-21.86 11.59-47.38 44.24-47.38a63.87 63.87 0 0 1 12.94 1.32l25-25.17 47.3 47.72c4.49-.45 11.52-1.11 14.5-1.11h.36c.78 0 2.09-.1 3.79-.1 20.14 0 32.16 9.34 32.16 25a25.12 25.12 0 0 1-5.8 16.4l5.75 11 47.05 47.47 2.53-4.4 2.67-.45a65.4 65.4 0 0 1 20.82 0l8.24 1.32z"/><path d="M189.98 189.7c-18.32 0-38.21-10.65-38.21-41.17 0-17.1 8.28-41.63 38.48-41.63 12.29 0 20.39 3.82 20.39 3.82a48.19 48.19 0 0 1-4.57 16s-33.87-14.59-33.87 21.84c0 35.73 34.77 21.28 34.77 21.28a47.28 47.28 0 0 1 4.78 16.08s-8.44 3.78-21.77 3.78zm57.42-38.29c0-3.95-1.72-7.42-10.86-7.42a43.92 43.92 0 0 0-14.16 2.6 32.58 32.58 0 0 1-3.44-13.48s45.28-15.77 45.28 20.25v32.72s-49.1 14.94-49.1-16.31c0-17.79 19.02-18.37 32.29-18.37zm-16.35 18c0 9.91 16.33 6.19 16.33 6.19v-12.87c-5.71 0-16.32-.81-16.32 6.7zm-93.77 32.9l-16.74 42.37-16.17-42.37a63.37 63.37 0 0 0-19.51 0l-3.24 79.78a52.23 52.23 0 0 0 17.51 0l1.23-45.86.57-.09 11 30.09a34.91 34.91 0 0 0 14.5 0l12.32-30.55.57.1 1.57 46.31a58.05 58.05 0 0 0 18.52 0l-3.8-79.77a55.64 55.64 0 0 0-18.32.02zm153.08-58.18s2-.18 3.61-.18c6.38 0 7.52 3.89 7.52 7.45 0 7.27-8.31 10.73-8.31 10.73l12.32 26.29a70 70 0 0 0 20.59 0l-12.75-24.45s7.16-4.37 7.16-15.22c0-22-28.65-19.1-30.55-19.1-4.1 0-17.77 1.48-17.77 1.48v57.28a54.69 54.69 0 0 0 18.19 0zm-68.15 109.55c0 21.42-13.39 29.84-28.71 29.84s-28.6-8.45-28.6-29.84 13.13-30.4 28.6-30.4 28.71 8.98 28.71 30.4zm-18.3-.25c0-5.18-1-15.8-10.41-15.8s-10.29 10.66-10.29 15.8.48 15.78 10.29 15.78 10.41-10.6 10.41-15.78zm194.52-28.87a59.67 59.67 0 0 0-19 0l-11.21 19.52-11.21-19.52a59.67 59.67 0 0 0-19 0l21.1 36.63v20.91a55 55 0 0 0 18.24 0v-20.91zm-58.07 25.5a88.26 88.26 0 0 1-.8 9.06h-34.31s.45 9 11.72 9a44.71 44.71 0 0 0 16.4-3.12 40 40 0 0 1 3.79 14.87 58.51 58.51 0 0 1-20.12 3.6c-16.3 0-30.21-7.51-30.21-29.7 0-14.31 7.16-30.51 28.49-30.51 17.59.02 25.04 13.48 25.04 26.8zm-16.65-3.23s-.13-9.81-9.08-9.81c-9.36 0-9.54 9.81-9.54 9.81zm-94.51-19.78v55.05a56 56 0 0 0 18.41 0v-42.41a33.47 33.47 0 0 1 4.74-.48c5.78 0 9.34 2.12 9.34 11.55v31.35a56 56 0 0 0 18.41 0v-34.8c0-36.12-50.9-20.26-50.9-20.26z"/></svg>