<svg width="21" height="20" viewBox="0 0 21 20" fill="none" xmlns="http://www.w3.org/2000/svg">
<g clip-path="url(#clip0)">
<path d="M19.0655 0.486465H1.82065C0.820203 0.486465 0.0062561 1.26638 0.0062561 2.22498V3.78837V13.0366V14.5987C0.0062561 15.5579 0.820203 16.3383 1.82065 16.3383H7.45185V18.2111H5.28405C4.9087 18.2111 4.6044 18.5027 4.6044 18.8623C4.6044 19.2219 4.9087 19.5135 5.28405 19.5135H8.1315H12.754H15.6024C15.9777 19.5135 16.282 19.2219 16.282 18.8623C16.282 18.5027 15.9777 18.2111 15.6024 18.2111H13.4337V16.3383H19.0655C20.0667 16.3383 20.8813 15.5579 20.8813 14.5987V2.22498C20.8813 1.26638 20.0668 0.486465 19.0655 0.486465ZM9.76402 4.43953V7.76132H5.54838V4.43953H9.76402ZM19.5219 4.43953V7.76132H11.1232V4.43953H19.5219ZM4.18909 7.76132H1.36555V4.43953H4.18909V7.76132ZM1.36555 9.06364H4.86701C4.86765 9.06364 4.86819 9.06372 4.86882 9.06372C4.86937 9.06372 4.87 9.06364 4.87064 9.06364H9.76411V12.3855H1.36555V9.06364ZM11.1233 9.06364H15.3391V12.3855H11.1233V9.06364ZM16.6983 9.06364H19.5219V12.3855H16.6983V9.06364ZM1.82065 1.78887H19.0655C19.3172 1.78887 19.522 1.98448 19.522 2.22506V3.1373H10.4454C10.4448 3.1373 10.4442 3.13721 10.4436 3.13721C10.443 3.13721 10.4424 3.1373 10.4419 3.1373H1.36555V2.22498C1.36555 1.98448 1.56972 1.78887 1.82065 1.78887ZM12.0744 18.2112H8.81115V16.3384H12.0744V18.2112ZM19.0655 15.0361H12.754H8.1315H1.82065C1.56963 15.0361 1.36555 14.8399 1.36555 14.5988V13.6878H19.522V14.5988C19.522 14.8399 19.3172 15.0361 19.0655 15.0361Z" fill="black"/>
</g>
<defs>
<clipPath id="clip0">
<rect width="20.875" height="20" fill="white" transform="translate(0.0062561)"/>
</clipPath>
</defs>
</svg>
